<?xml  version="1.0" encoding="UTF-8"?>
<!DOCTYPE svg PUBLIC "-//W3C//DTD SVG 1.0//EN" "http://www.w3.org/TR/2001/REC-SVG-20010904/DTD/svg10.dtd" >
<svg xmlns="http://www.w3.org/2000/svg" >
<metadata>
<version>1.0</version>
<id><![CDATA[Proxima N W01 Cd Bold It]]></id>
<vendor>Monotype Imaging Inc.</vendor>
<credits>
<name>Fonts.com WebFonts</name>
<URL>http://webfonts.fonts.com</URL>
<role>Home of the Web fonts</role>
</credits>
<license>
<URL>http://webfonts.fonts.com/Legal</URL>
</license>
<copyright><![CDATA[Copyright (c) Mark Simonson, 2005. All rights reserved.]]></copyright>
<trademark><![CDATA[Proxima Nova is a trademark of Mark Simonson.]]></trademark>
<licensee>
<name></name>
</licensee>
</metadata>
<defs >
<font horiz-adv-x="453" id="f99ee51c-ec9b-491b-9ed0-0babaed39c1f">
<font-face font-family="" panose-1="2 0 5 6 3 0 0 2 0 4" ascent="741" descent="-259" units-per-em="1000" alphabetic="0">
</font-face>
<missing-glyph horiz-adv-x="0" />

<glyph unicode="&#xA;" />
<glyph unicode="&#xD;" horiz-adv-x="0" />
<glyph unicode=" " horiz-adv-x="210" />
<glyph unicode="!" horiz-adv-x="252" d="M66 213L146 667H292L172 213H66ZM79 -11Q50 -11 30 9T9 59Q9 77 16 92T34 119T61 137T94 144Q123 144 143 123T164 72Q164 37 139 13T79 -11Z"  />
<glyph unicode="&quot;" horiz-adv-x="397" d="M113 381Q115 437 118 484Q119 504 120 523T121 559T123 586T124 600Q125 633 146 655T200 677Q223 677 240 660T258 617Q258 609 256 601T251 588Q250 585 246 575T235 550T221 517T206 480Q188 436 166 381H113ZM291 381Q293 437 296 484Q297 504 297 523T299 559T300 586T301 600Q302 633 323 655T377 677Q400 677 417 660T435 617Q435 609 433 601T428 588Q427 585 423 575T412 550T399 517T384 480Q366 436 344 381H291Z"  />
<glyph unicode="#" horiz-adv-x="536" d="M158 0L245 171H166L81 0H-9L78 171H0L38 248H117L202 418H123L160 494H241L327 667H417L330 494H409L495 667H584L497 494H576L539 418H459L372 248H455L417 171H333L248 0H158ZM369 418H291L206 248H283L369 418Z"  />
<glyph unicode="$" horiz-adv-x="501" d="M157 -4Q103 6 61 30T-7 88L74 187Q92 160 121 141T184 113L222 286Q198 300 174 316T131 353T100 400T88 461Q88 503 104 541T149 609T218 657T309 678L329 768H419L397 669Q437 659 471 640T531 591L453 495Q436 515 415 528T370 550L335 390Q359 376 382 359T424 321T455 274T467 214Q467 170 452 130T408 60T338 10T245 -11L226 -100H136L157 -4ZM326 190Q326 204 319 214T300 236L273 112Q299 121 312 142T326 190ZM230 486Q230 463 256 440L281 555Q257 547 244 528T230 486Z"  />
<glyph unicode="%" horiz-adv-x="672" d="M75 0L575 667H638L138 0H75ZM463 -12Q433 -12 408 -2T365 25T336 67T326 120Q326 163 340 200T377 263T432 305T496 320Q526 320 551 311T594 284T622 242T633 188Q633 145 619 109T582 45T527 3T463 -12ZM467 62Q482 62 497 71T523 96T542 133T549 181Q549 211 534 228T492 245Q476 245 462 236T436 212T417 174T410 127Q410 97 425 80T467 62ZM215 345Q185 345 160 354T117 381T88 423T78 477Q78 520 92 557T129 620T184 662T248 677Q278 677 303 668T346 641T375 599T385 546Q385 502 371 466T334 402T279 360T215 345ZM219 419Q234 419 249 428T275 453T294 490T301 538Q301 568 286 585T244 602Q229 602 214 593T188 569T169 531T162 484Q162 454 177 437T219 419Z"  />
<glyph unicode="&amp;" horiz-adv-x="547" d="M345 0L325 35Q292 12 256 0T182 -12Q144 -12 112 -2T56 27T19 77T5 148Q5 196 19 232T57 295T112 342T176 379Q162 433 162 480Q162 521 176 557T216 619T274 661T345 677Q375 677 401 669T446 645T477 605T489 548Q489 506 473 476T431 422T373 381T306 347Q312 330 319 314T334 280Q350 239 367 205Q390 235 408 266T440 325L526 273Q501 230 473 189T413 113Q427 87 442 60T477 0H345ZM206 83Q225 83 244 91T282 114Q268 140 257 163T238 207Q229 228 221 249T204 290Q172 267 152 238T132 164Q132 126 153 105T206 83ZM276 478Q276 456 281 428Q325 450 354 475T383 541Q383 568 372 579T342 590Q330 590 318 582T297 558T282 523T276 478Z"  />
<glyph unicode="&apos;" horiz-adv-x="222" d="M113 381Q115 437 118 484Q119 504 120 523T121 559T123 586T124 600Q125 633 146 655T200 677Q223 677 240 660T258 617Q258 609 256 601T251 588Q250 585 246 575T235 550T221 517T206 480Q188 436 166 381H113Z"  />
<glyph unicode="(" horiz-adv-x="277" d="M81 -199Q52 -144 38 -73T23 72Q23 158 40 241T90 401T169 550T275 685L345 629Q300 565 264 493T202 343T162 186T148 25Q148 6 150 -17T155 -65T162 -114T171 -158L81 -199Z"  />
<glyph unicode=")" horiz-adv-x="278" d="M196 685Q224 629 239 559T254 414Q254 328 237 245T186 85T106 -64T1 -199L-69 -143Q-24 -79 12 -7T75 143T115 300T129 460Q129 479 127 502T122 551T115 600T106 644L196 685Z"  />
<glyph unicode="*" horiz-adv-x="336" d="M164 369L194 483L88 435L70 490L179 529L93 589L134 637L213 569L233 677H294L263 563L369 612L387 557L280 517L365 458L323 410L244 478L226 369H164Z"  />
<glyph unicode="+" horiz-adv-x="444" d="M275 300L236 125H154L193 300H41L58 375H209L246 542H329L292 375H443L427 300H275Z"  />
<glyph unicode="&#x2c;" horiz-adv-x="252" d="M168 65Q168 37 157 9T127 -45T81 -93T25 -130L-18 -84Q-5 -78 10 -69T38 -49T61 -26T78 0Q76 -1 73 -1T68 -1Q44 -1 27 15T9 61Q9 78 16 93T35 119T62 137T94 144Q123 144 145 124T168 65Z"  />
<glyph unicode="-" horiz-adv-x="270" d="M18 191L40 293H251L229 191H18Z"  />
<glyph unicode="." horiz-adv-x="252" d="M79 -11Q50 -11 30 9T9 59Q9 77 16 92T34 119T61 137T94 144Q123 144 143 123T164 72Q164 37 139 13T79 -11Z"  />
<glyph unicode="/" horiz-adv-x="278" d="M-60 -20L288 687H378L29 -20H-60Z"  />
<glyph unicode="0" horiz-adv-x="537" d="M237 -12Q192 -12 156 3T93 49T52 124T37 228Q37 282 47 336T76 440T121 533T182 608T255 658T339 677Q384 677 420 662T483 616T523 541T538 438Q538 357 516 277T454 132T359 28T237 -12ZM249 107Q273 107 294 124T332 171T363 236T385 311T399 386T404 452Q404 500 387 529T326 558Q302 558 281 541T243 495T212 430T190 355T176 280T171 214Q171 166 188 137T249 107Z"  />
<glyph unicode="1" horiz-adv-x="380" d="M132 0L241 494L117 389L58 470L297 667H414L267 0H132Z"  />
<glyph unicode="2" horiz-adv-x="521" d="M-10 0L19 129Q113 200 182 253T298 347T368 422T391 488Q391 520 366 539T299 559Q257 559 224 543T161 497L99 589Q140 630 194 653T311 677Q356 677 396 666T467 632T514 576T532 500Q532 453 511 410T450 321T350 227T214 118H450L424 0H-10Z"  />
<glyph unicode="3" horiz-adv-x="513" d="M234 -12Q194 -12 156 -3T85 23T27 66T-13 125L85 199Q107 153 148 130T233 107Q259 107 278 116T311 140T330 174T337 214Q337 245 313 262T241 280Q225 280 208 280T182 278L209 399Q213 399 222 399T243 398T265 398T282 398Q332 398 361 424T390 491Q390 523 364 540T289 558Q254 558 220 544T159 503L100 589Q138 627 190 652T306 677Q355 677 396 667T466 636T511 585T528 516Q528 481 514 451T477 398T425 359T364 338Q414 324 441 288T468 201Q468 157 450 118T401 50T326 5T234 -12Z"  />
<glyph unicode="4" horiz-adv-x="514" d="M238 0L268 142H-3L24 265L340 667H519L428 260H496L471 142H403L372 0H238ZM354 529L144 260H294L354 529Z"  />
<glyph unicode="5" horiz-adv-x="527" d="M242 -12Q154 -12 96 23T6 119L107 195Q125 153 160 130T243 107Q268 107 288 118T324 147T347 189T356 239Q356 276 331 297T263 318Q231 318 207 307T160 274L71 309L150 667H550L524 549H258L222 383Q245 405 272 416T337 427Q371 427 400 416T450 383T484 329T496 256Q496 203 478 155T426 69T346 10T242 -12Z"  />
<glyph unicode="6" horiz-adv-x="525" d="M249 -12Q145 -12 90 50T34 221Q34 267 43 319T70 422T115 519T178 600T260 656T361 677Q424 677 471 653T548 586L462 495Q447 525 419 541T353 558Q323 558 297 543T251 502T216 444T191 380Q186 366 184 354Q208 386 247 407T331 429Q366 429 396 418T449 385T485 334T498 264Q498 212 480 163T428 74T350 12T249 -12ZM251 107Q275 107 295 120T329 153T350 197T358 243Q358 278 334 299T268 320Q237 320 213 303T168 259Q166 249 165 234T164 207Q164 160 187 134T251 107Z"  />
<glyph unicode="7" horiz-adv-x="468" d="M39 0L359 549H88L114 667H542L521 574L190 0H39Z"  />
<glyph unicode="8" horiz-adv-x="523" d="M239 -12Q190 -12 148 -3T75 26T27 77T9 152Q9 184 20 215T52 273T106 321T181 356Q146 373 120 408T94 488Q94 533 114 568T166 627T240 664T325 677Q365 677 404 668T475 640T525 591T545 518Q545 483 533 453T499 398T448 358T384 333Q428 309 453 271T479 186Q479 141 460 105T409 42T332 2T239 -12ZM294 392Q316 395 336 403T371 424T395 454T404 495Q404 524 380 542T319 560Q300 560 283 553T254 534T234 505T226 469Q226 455 232 443T249 421T271 404T294 392ZM241 105Q261 105 280 112T313 133T336 164T345 204Q345 222 338 236T321 261T297 279T271 290Q247 287 226 278T187 254T160 220T150 176Q150 141 175 123T241 105Z"  />
<glyph unicode="9" horiz-adv-x="525" d="M314 678Q419 678 474 616T530 445Q530 399 521 347T494 244T449 147T386 66T303 10T202 -11Q139 -11 92 13T16 79L101 171Q116 141 144 125T210 108Q241 108 266 123T312 164T348 222T373 286Q375 294 376 299T380 312Q355 280 316 259T232 237Q197 237 167 248T114 281T78 332T65 402Q65 454 83 503T135 592T214 654T314 678ZM312 559Q288 559 268 546T234 513T213 469T205 423Q205 389 229 367T295 345Q326 345 351 363T396 407Q398 416 399 431T400 459Q400 506 377 532T312 559Z"  />
<glyph unicode=":" horiz-adv-x="252" d="M80 -11Q50 -11 30 9T9 59Q9 77 16 92T34 119T61 137T94 144Q123 144 143 123T164 72Q164 37 139 13T80 -11ZM156 335Q127 335 106 356T85 406Q85 441 110 465T170 490Q199 490 219 469T240 419Q240 384 216 360T156 335Z"  />
<glyph unicode=";" horiz-adv-x="252" d="M168 65Q168 37 157 9T127 -45T81 -93T25 -130L-18 -84Q-5 -78 10 -69T38 -49T61 -26T78 0Q76 -1 73 -1T68 -1Q44 -1 27 15T9 61Q9 78 16 93T35 119T62 137T94 144Q123 144 145 124T168 65ZM156 335Q127 335 107 356T86 406Q86 441 110 465T170 490Q199 490 220 469T241 419Q241 384 216 360T156 335Z"  />
<glyph unicode="&lt;" horiz-adv-x="444" d="M39 292L58 378L481 547L460 454L135 330L406 208L387 123L39 292Z"  />
<glyph unicode="=" horiz-adv-x="444" d="M61 391L78 466H463L447 391H61ZM19 202L36 277H422L405 202H19Z"  />
<glyph unicode="&gt;" horiz-adv-x="444" d="M1 123L23 216L348 338L77 461L96 547L444 378L424 292L1 123Z"  />
<glyph unicode="?" horiz-adv-x="391" d="M139 202Q132 216 129 233T125 267Q125 303 137 329T169 375T210 410T252 441T283 472T296 510Q296 532 280 547T231 562Q182 562 143 526L95 617Q134 649 176 663T261 677Q298 677 330 668T386 641T423 598T437 542Q437 502 423 473T386 422T338 381T290 346T254 310T239 267Q239 261 241 252T248 235L139 202ZM149 -11Q120 -11 100 9T79 59Q79 77 85 92T103 119T130 137T163 144Q192 144 213 123T234 72Q234 37 209 13T149 -11Z"  />
<glyph unicode="@" horiz-adv-x="709" d="M331 -70Q269 -70 218 -48T131 14T75 108T55 229Q55 310 85 384T167 514T285 604T428 638Q487 638 536 618T620 561T674 474T694 365Q694 301 678 250T636 162T577 105T511 85Q471 85 448 105T420 155L418 163Q395 129 363 107T290 85Q236 85 201 122T165 233Q165 283 181 331T226 416T292 475T373 498Q411 498 436 480T472 432L483 484H589L537 235Q536 231 535 223T534 209Q534 167 567 167Q579 167 594 179T621 216T643 278T652 364Q652 418 636 462T591 536T519 583T425 600Q357 600 297 569T192 487T121 369T94 231Q94 175 110 127T158 43T235 -13T336 -33Q384 -33 423 -18T501 23L521 -7Q478 -37 431 -53T331 -70ZM337 170Q370 170 392 191T429 234L456 361Q450 379 436 396T395 413Q368 413 346 398T309 358T285 304T276 246Q276 212 291 191T337 170Z"  />
<glyph unicode="A" horiz-adv-x="554" d="M362 0L357 118H151L95 0H-56L289 667H451L502 0H362ZM344 526L204 236H355L344 526Z"  />
<glyph unicode="B" horiz-adv-x="558" d="M5 0L152 667H397Q438 667 469 655T522 622T555 574T566 515Q566 482 555 451T525 395T480 354T422 333Q444 327 460 315T487 285T503 247T509 206Q509 170 497 133T460 67T394 19T299 0H5ZM340 397Q362 397 378 405T404 427T419 457T424 490Q424 518 406 534T359 550H261L227 397H340ZM281 117Q324 117 349 146T374 217Q374 247 357 264T307 281H201L165 117H281Z"  />
<glyph unicode="C" horiz-adv-x="558" d="M287 -12Q232 -12 186 6T107 57T56 137T37 243Q37 324 60 402T127 541T233 640T373 678Q425 678 464 662T531 620T576 559T602 488L475 454Q464 502 436 530T365 559Q324 559 290 530T230 456T190 356T175 246Q175 181 207 144T295 107Q328 107 359 128T415 186L520 128Q475 56 414 22T287 -12Z"  />
<glyph unicode="D" horiz-adv-x="597" d="M5 0L152 667H362Q406 667 447 650T521 601T572 522T592 415Q592 371 584 324T558 230T511 143T441 69T345 19T220 0H5ZM243 118Q295 118 334 146T400 216T440 310T453 410Q453 476 421 512T337 549H260L165 118H243Z"  />
<glyph unicode="E" horiz-adv-x="481" d="M5 0L152 667H534L508 549H260L227 398H468L441 280H201L165 118H413L387 0H5Z"  />
<glyph unicode="F" horiz-adv-x="473" d="M5 0L152 667H534L508 549H260L227 398H468L441 280H201L139 0H5Z"  />
<glyph unicode="G" horiz-adv-x="586" d="M287 -12Q231 -12 185 6T106 57T55 137T37 243Q37 325 60 403T128 542T235 640T379 678Q427 678 463 664T526 626T569 572T594 508L476 467Q466 505 438 532T365 559Q325 559 290 531T230 459T190 358T175 246Q175 181 206 144T295 107Q327 107 351 120T395 154L416 248H290L317 366H569L511 104Q468 47 411 18T287 -12Z"  />
<glyph unicode="H" horiz-adv-x="608" d="M360 0L423 284H202L139 0H5L152 667H286L228 402H449L507 667H642L495 0H360Z"  />
<glyph unicode="I" horiz-adv-x="252" d="M5 0L152 667H286L139 0H5Z"  />
<glyph unicode="J" horiz-adv-x="417" d="M126 -12Q80 -12 37 2T-33 47L31 150Q45 130 67 119T115 107Q156 107 180 130T214 197L318 667H452L347 193Q324 87 271 38T126 -12Z"  />
<glyph unicode="K" horiz-adv-x="553" d="M348 0L246 265L180 187L139 0H5L152 667H286L223 378L466 667H630L348 353L498 0H348Z"  />
<glyph unicode="L" horiz-adv-x="444" d="M5 0L152 667H286L165 118H389L363 0H5Z"  />
<glyph unicode="M" horiz-adv-x="735" d="M489 0L587 444L340 0H287L237 444L139 0H5L152 667H328L371 281L587 667H770L623 0H489Z"  />
<glyph unicode="N" horiz-adv-x="606" d="M366 0L229 410L139 0H5L152 667H288L419 272L506 667H641L494 0H366Z"  />
<glyph unicode="O" horiz-adv-x="622" d="M287 -12Q230 -12 184 6T105 59T55 140T37 243Q37 320 59 397T125 537T231 639T373 678Q430 678 476 659T555 606T605 525T623 422Q623 345 601 268T535 128T429 27T287 -12ZM295 107Q336 107 371 135T431 209T470 309T484 419Q484 483 451 521T364 559Q323 559 288 531T228 457T189 356T175 246Q175 182 207 145T295 107Z"  />
<glyph unicode="P" horiz-adv-x="533" d="M5 0L152 667H382Q423 667 456 654T512 616T547 560T560 490Q560 448 546 404T501 323T421 264T302 241H192L139 0H5ZM312 359Q337 359 357 369T391 395T412 432T420 476Q420 510 401 529T350 549H260L218 359H312Z"  />
<glyph unicode="Q" horiz-adv-x="622" d="M287 -12Q230 -12 184 6T105 59T55 140T37 243Q37 320 59 397T125 537T231 639T373 678Q430 678 476 659T555 606T605 525T623 422Q623 368 612 313T578 207T524 114T450 41L467 -2L363 -38L350 -5Q335 -8 320 -10T287 -12ZM305 107L263 215L367 251L401 165Q420 188 435 218T461 281T478 349T484 419Q484 483 451 521T364 559Q323 559 288 531T228 457T189 356T175 246Q175 182 207 145T295 107H305Z"  />
<glyph unicode="R" horiz-adv-x="551" d="M318 0L270 241H192L139 0H5L152 667H377Q415 667 448 654T506 618T545 561T560 488Q560 445 547 407T512 338T461 287T400 258L462 0H318ZM313 359Q338 359 358 368T391 394T412 431T420 475Q420 511 399 530T349 549H260L218 359H313Z"  />
<glyph unicode="S" horiz-adv-x="498" d="M226 -12Q149 -12 86 15T-12 88L69 187Q95 150 139 128T232 106Q274 106 297 130T321 190Q321 212 304 229T260 262T202 295T145 336T101 389T83 461Q83 504 100 543T147 613T221 660T316 678Q378 678 434 656T526 591L448 495Q422 527 383 543T305 560Q269 560 247 538T225 486Q225 465 242 449T286 416T343 382T400 341T444 287T462 214Q462 168 446 127T399 55T324 6T226 -12Z"  />
<glyph unicode="T" horiz-adv-x="473" d="M116 0L237 549H89L115 667H545L519 549H371L250 0H116Z"  />
<glyph unicode="U" horiz-adv-x="609" d="M282 -12Q228 -12 185 2T113 42T67 106T51 188Q51 198 52 210T56 232L152 667H287L190 228Q189 223 188 215T187 197Q187 158 213 132T287 106Q340 106 369 137T411 228L508 667H643L546 230Q521 115 457 52T282 -12Z"  />
<glyph unicode="V" horiz-adv-x="554" d="M142 0L91 667H231L252 158L498 667H649L304 0H142Z"  />
<glyph unicode="W" horiz-adv-x="767" d="M415 0L428 444L244 0H104L99 667H240L223 203L421 667H526L519 203L707 667H854L555 0H415Z"  />
<glyph unicode="X" horiz-adv-x="553" d="M355 0L277 230L105 0H-56L218 349L102 667H249L318 450L475 667H637L377 334L501 0H355Z"  />
<glyph unicode="Y" horiz-adv-x="538" d="M148 0L208 275L89 667H230L296 399L481 667H635L342 275L282 0H148Z"  />
<glyph unicode="Z" horiz-adv-x="484" d="M-18 0L6 110L337 549H103L129 667H534L511 559L177 118H420L394 0H-18Z"  />
<glyph unicode="[" horiz-adv-x="242" d="M-55 -190L137 678H321L303 597H206L50 -109H146L128 -190H-55Z"  />
<glyph unicode="\" horiz-adv-x="278" d="M93 687H179L219 -20H133L93 687Z"  />
<glyph unicode="]" horiz-adv-x="242" d="M-79 -190L-61 -109H36L193 597H96L113 678H297L104 -190H-79Z"  />
<glyph unicode="^" horiz-adv-x="389" d="M305 333L271 578L130 333H38L244 667H332L389 333H305Z"  />
<glyph unicode="_" horiz-adv-x="422" d="M-84 -121L-65 -40H362L343 -121H-84Z"  />
<glyph unicode="`" horiz-adv-x="214" d="M203 556L101 700H208L283 556H203Z"  />
<glyph unicode="a" horiz-adv-x="504" d="M245 495Q286 495 319 477T369 420L383 483H503L396 0H276L289 59Q262 22 231 5T165 -12Q98 -12 59 33T20 165Q20 216 34 274T77 381T147 462T245 495ZM268 389Q239 389 216 368T178 317T154 251T145 185Q145 141 166 118T223 94Q249 94 272 111T310 151L350 332Q340 357 319 373T268 389Z"  />
<glyph unicode="b" horiz-adv-x="504" d="M259 -12Q217 -12 184 6T134 63L120 0H1L147 667H267L214 424Q241 461 272 478T338 495Q405 495 444 450T483 318Q483 267 469 210T426 103T356 21T259 -12ZM235 94Q264 94 287 114T325 166T349 232T358 297Q358 341 337 365T281 389Q255 389 232 372T193 331L153 151Q163 126 184 110T235 94Z"  />
<glyph unicode="c" horiz-adv-x="421" d="M222 -12Q131 -12 77 41T23 188Q23 245 41 300T93 398T174 468T278 495Q335 495 375 475T437 423L363 344Q350 366 329 377T282 389Q250 389 225 372T182 326T155 264T145 197Q145 145 172 120T241 94Q266 94 286 104T321 132L366 45Q341 21 306 5T222 -12Z"  />
<glyph unicode="d" horiz-adv-x="504" d="M245 495Q286 495 319 477T369 420L424 667H544L396 0H276L289 59Q262 22 231 5T165 -12Q98 -12 59 33T20 165Q20 216 34 274T77 381T147 462T245 495ZM268 389Q239 389 216 368T178 317T154 251T145 185Q145 141 166 118T223 94Q249 94 272 111T310 151L350 332Q340 357 319 373T268 389Z"  />
<glyph unicode="e" horiz-adv-x="479" d="M230 -12Q133 -12 78 40T22 188Q22 239 39 293T89 393T168 466T274 495Q359 495 408 445T457 305Q457 277 452 249T442 203H140Q139 196 139 189T138 176Q138 161 144 145T163 116T196 94T245 85Q272 85 300 95T348 123L387 45Q355 17 314 3T230 -12ZM346 285Q348 292 348 300T349 315Q349 348 329 373T266 399Q243 399 224 389T191 362T167 325T155 285H346Z"  />
<glyph unicode="f" horiz-adv-x="288" d="M23 0L106 379H44L67 483H129L137 521Q144 553 157 581T190 631T237 664T303 677Q336 677 365 668T413 639L359 559Q341 578 315 578Q291 578 277 563T257 521L249 483H329L305 379H226L143 0H23Z"  />
<glyph unicode="g" horiz-adv-x="504" d="M166 -196Q106 -196 56 -179T-29 -124L37 -38Q57 -65 91 -80T163 -95Q203 -95 234 -70T279 20L293 76Q268 41 236 23T167 4Q136 4 109 14T63 45T32 98T21 176Q21 226 35 282T76 385T145 464T243 495Q261 495 279 490T315 476T346 452T368 420L383 483H502L400 25Q386 -41 362 -83T306 -151T239 -186T166 -196ZM225 111Q250 111 273 127T312 167L349 330Q338 356 315 372T263 389Q235 389 214 371T177 324T154 262T146 199Q146 155 167 133T225 111Z"  />
<glyph unicode="h" horiz-adv-x="500" d="M272 0L341 317Q343 321 344 329T345 342Q345 367 330 378T289 389Q260 389 235 370T192 328L121 0H0L147 667H268L213 421Q239 450 274 472T355 495Q412 495 443 467T475 393Q475 386 474 376T471 358L392 0H272Z"  />
<glyph unicode="i" horiz-adv-x="228" d="M186 537Q157 537 139 555T121 599Q121 619 128 634T148 660T174 676T203 682Q231 682 249 664T268 620Q268 600 261 585T241 559T215 543T186 537ZM0 0L107 483H227L120 0H0Z"  />
<glyph unicode="j" horiz-adv-x="228" d="M-54 -196Q-125 -196 -158 -162L-110 -75Q-95 -95 -67 -95Q-45 -95 -30 -79T-7 -28L107 483H227L113 -28Q96 -108 59 -152T-54 -196ZM186 537Q157 537 139 555T121 599Q121 619 128 634T148 660T174 676T203 682Q231 682 249 664T268 620Q268 600 261 585T241 559T215 543T186 537Z"  />
<glyph unicode="k" horiz-adv-x="469" d="M275 0L215 192L146 118L120 0H0L147 667H267L180 271L370 483H514L313 266L412 0H275Z"  />
<glyph unicode="l" horiz-adv-x="228" d="M0 0L147 667H267L120 0H0Z"  />
<glyph unicode="m" horiz-adv-x="744" d="M516 0L586 318Q587 321 588 328T590 344Q590 365 576 377T540 389Q514 389 490 370T450 328L378 0H258L328 318Q329 323 330 330T332 346Q332 365 319 377T281 389Q255 389 232 370T192 328L120 0H0L107 483H227L213 421Q223 434 237 447T269 471T306 488T348 495Q376 495 396 487T431 466T452 440T459 416Q459 413 458 411Q484 445 521 470T606 495Q654 495 686 469T719 393Q719 384 718 374T715 358L636 0H516Z"  />
<glyph unicode="n" horiz-adv-x="500" d="M271 0L341 316Q342 321 343 328T345 342Q345 367 330 378T293 389Q261 389 236 370T192 328L120 0H0L107 483H227L213 421Q239 450 274 472T355 495Q411 495 443 468T475 393Q475 387 474 376T471 358L391 0H271Z"  />
<glyph unicode="o" horiz-adv-x="495" d="M220 -12Q172 -12 135 2T73 42T35 104T22 186Q22 240 39 295T90 395T169 467T274 495Q322 495 359 481T421 441T459 379T472 297Q472 243 455 188T404 88T325 16T220 -12ZM225 94Q254 94 277 114T316 165T340 231T349 295Q349 343 328 366T269 389Q240 389 217 369T178 318T154 252T145 188Q145 140 166 117T225 94Z"  />
<glyph unicode="p" horiz-adv-x="503" d="M259 -12Q217 -12 184 6T134 63L79 -184H-40L107 483H227L214 424Q241 461 272 478T338 495Q405 495 444 450T483 318Q483 267 469 210T426 103T356 21T259 -12ZM235 94Q264 94 287 114T325 166T349 232T358 297Q358 341 337 365T281 389Q255 389 232 372T193 331L153 151Q163 126 184 110T235 94Z"  />
<glyph unicode="q" horiz-adv-x="503" d="M245 495Q286 495 319 477T369 420L383 483H503L355 -184H235L289 59Q262 22 231 5T165 -12Q98 -12 59 33T20 165Q20 216 34 274T77 381T147 462T245 495ZM268 389Q239 389 216 368T178 317T154 251T145 185Q145 141 166 118T223 94Q249 94 272 111T310 151L350 332Q340 357 319 373T268 389Z"  />
<glyph unicode="r" horiz-adv-x="320" d="M0 0L107 483H227L213 420Q239 455 275 475T361 495L335 376Q330 378 320 379T298 381Q267 381 239 364T191 320L120 0H0Z"  />
<glyph unicode="s" horiz-adv-x="412" d="M176 -12Q116 -12 65 9T-16 67L50 146Q59 134 72 123T103 102T141 87T182 81Q212 81 230 97T248 135Q248 152 234 164T198 187T151 209T104 237T68 277T53 333Q53 364 64 393T99 445T156 481T235 495Q286 495 333 476T409 423L348 347Q334 367 302 384T233 402Q204 402 187 388T170 353Q170 338 184 327T221 306T269 283T317 254T353 213T368 156Q368 122 355 92T317 38T257 2T176 -12Z"  />
<glyph unicode="t" horiz-adv-x="298" d="M171 -12Q111 -12 77 11T43 84Q43 92 44 101T47 121L105 379H42L66 483H128L157 615H277L248 483H328L304 379H225L174 150Q173 145 172 139T171 128Q171 94 208 94Q216 94 224 97T238 104L242 6Q216 -12 171 -12Z"  />
<glyph unicode="u" horiz-adv-x="499" d="M227 483L157 166Q155 159 154 153T153 141Q153 117 169 106T209 94Q238 94 263 113T305 154L378 483H498L391 0H271L285 62Q260 33 225 11T144 -12Q87 -12 55 15T23 90Q23 96 24 107T28 125L107 483H227Z"  />
<glyph unicode="v" horiz-adv-x="447" d="M105 0L51 483H175L197 144L371 483H502L234 0H105Z"  />
<glyph unicode="w" horiz-adv-x="688" d="M376 0L362 329L205 0H78L56 483H176L179 155L337 483H447L462 155L611 483H739L503 0H376Z"  />
<glyph unicode="x" horiz-adv-x="438" d="M255 0L204 161L82 0H-53L143 246L62 483H189L234 331L346 483H481L293 246L382 0H255Z"  />
<glyph unicode="y" horiz-adv-x="447" d="M-12 -82Q-6 -86 4 -87T24 -89Q55 -89 75 -55L103 -5L51 483H175L197 145L371 483H502L187 -82Q169 -115 151 -136T113 -171T72 -190T24 -196Q3 -196 -17 -193T-51 -184L-12 -82Z"  />
<glyph unicode="z" horiz-adv-x="407" d="M-20 0L0 90L241 378H64L87 483H421L402 396L159 105H341L318 0H-20Z"  />
<glyph unicode="{" horiz-adv-x="254" d="M107 -190Q84 -190 62 -182T24 -160T-3 -125T-13 -79Q-13 -63 -10 -51L33 143Q35 153 35 161Q35 182 25 196T-4 210L11 278Q40 278 56 297T78 345L121 539Q137 610 180 644T288 678H333L315 597H270Q222 597 208 539L160 324Q153 291 139 268T95 235Q110 227 117 213T124 179Q124 171 123 163T120 145L78 -47Q77 -52 77 -56T76 -66Q76 -86 88 -98T117 -110H158L140 -190H107Z"  />
<glyph unicode="|" horiz-adv-x="198" d="M79 -20V687H159V-20H79Z"  />
<glyph unicode="}" horiz-adv-x="254" d="M146 678Q169 678 191 670T229 648T256 613T266 567Q266 560 266 552T263 538L220 345Q218 335 218 327Q218 305 228 292T257 278L241 210Q212 210 197 191T175 143L132 -51Q116 -122 73 -156T-36 -190H-80L-62 -109H-18Q31 -109 45 -51L92 164Q100 197 114 220T157 253Q128 270 128 309Q128 317 129 325T132 343L175 536Q177 546 177 554Q177 574 165 586T136 598H95L113 678H146Z"  />
<glyph unicode="~" horiz-adv-x="463" d="M528 658Q520 617 507 574T472 496T422 437T352 414Q319 414 302 427T276 460T265 503T260 546T253 579T234 592Q210 592 187 545T146 413L65 422Q73 463 87 506T122 585T172 643T242 666Q275 666 292 653T318 620T329 577T333 534T341 501T360 487Q383 487 407 534T448 667L528 658Z"  />
<glyph unicode="&#xA0;" horiz-adv-x="210" />
<glyph unicode="&#xA1;" horiz-adv-x="252" d="M184 270L104 -184H-41L79 270H184ZM172 494Q201 494 221 474T242 423Q242 389 217 364T157 339Q128 339 108 360T87 411Q87 446 112 470T172 494Z"  />
<glyph unicode="&#xA2;" horiz-adv-x="421" d="M149 -1Q90 17 57 65T23 188Q23 243 40 296T88 391T163 461T260 494L276 565H363L345 486Q376 477 399 461T437 423L363 344Q349 368 322 381L258 95Q278 99 293 108T321 132L366 45Q343 22 310 6T235 -12L215 -100H128L149 -1ZM145 197Q145 144 175 117L233 376Q212 365 196 345T169 301T151 250T145 197Z"  />
<glyph unicode="&#xA3;" horiz-adv-x="487" d="M49 350H113Q105 372 98 395T91 449Q91 498 111 539T164 611T241 659T331 677Q368 677 401 668T460 642T504 599T528 539L409 497Q405 530 386 549T334 568Q314 568 297 558T266 529T244 485T236 432Q236 408 243 389T256 350H363L345 272H262Q254 224 228 186T172 128Q184 133 193 134T211 136Q230 136 245 132T275 122T303 112T334 107Q359 107 376 116T408 140L429 33Q410 13 383 1T317 -12Q286 -12 261 -6T214 9T172 23T129 30Q106 30 83 22T31 -7L9 85Q36 98 59 117T99 159T126 207T136 260Q136 268 135 272H32L49 350Z"  />
<glyph unicode="&#xA4;" horiz-adv-x="532" d="M263 94Q192 94 143 126L54 53L-9 132L78 202Q61 242 61 291Q61 346 79 396T131 486L76 558L157 623L213 549Q260 571 312 571Q348 571 377 563T430 539L519 611L582 534L493 462Q511 421 511 373Q511 318 493 268T440 178L495 109L415 43L359 115Q315 94 263 94ZM181 297Q181 256 202 228T268 199Q295 199 317 213T356 250T382 303T392 365Q392 407 371 436T304 465Q277 465 254 451T215 414T190 360T181 297Z"  />
<glyph unicode="&#xA5;" horiz-adv-x="538" d="M149 0L174 116H-5L12 191H191L209 275H31L47 350H186L90 667H231L297 399L482 667H636L399 350H536L520 275H343L325 191H501L484 116H308L283 0H149Z"  />
<glyph unicode="&#xA6;" horiz-adv-x="198" d="M79 -20V296H159V-20H79ZM79 371V687H159V371H79Z"  />
<glyph unicode="&#xA7;" horiz-adv-x="415" d="M406 334Q406 285 378 246T297 186Q324 167 337 142T351 88Q351 53 337 22T298 -32T239 -68T163 -81Q99 -81 46 -63T-39 -6L28 68Q49 39 83 22T159 5Q192 5 212 24T232 70Q232 89 218 102T183 127T136 150T90 178T54 218T40 275Q40 324 70 361T158 415Q129 432 112 459T95 521Q95 555 108 583T146 633T203 665T274 677Q340 677 384 659T457 608L394 542Q374 568 343 580T280 592Q247 592 229 575T211 534Q211 516 225 503T261 479T308 456T355 428T391 390T406 334ZM287 306Q287 332 272 348T237 373Q192 366 174 345T156 297Q156 274 173 257T222 226Q256 237 271 258T287 306Z"  />
<glyph unicode="&#xA8;" horiz-adv-x="286" d="M383 617Q383 603 377 590T361 567T337 551T309 545Q285 545 269 561T252 603Q252 632 274 653T325 674Q350 674 366 658T383 617ZM196 617Q196 588 174 567T123 545Q98 545 82 561T65 603Q65 632 87 653T138 674Q163 674 179 658T196 617Z"  />
<glyph unicode="&#xA9;" horiz-adv-x="778" d="M754 334Q754 263 727 200T653 90T543 16T408 -11Q337 -11 274 16T165 90T91 200T64 334Q64 406 91 468T164 578T274 652T408 679Q480 679 543 652T653 578T727 469T754 334ZM718 334Q718 398 694 454T627 552T529 618T408 643Q344 643 288 619T190 552T124 454T100 334Q100 270 124 214T190 116T288 50T408 25Q472 25 528 49T627 116T693 214T718 334ZM530 177Q503 154 468 139T392 123Q348 123 313 137T252 176T214 234T201 307Q201 358 220 402T272 478T347 528T434 546Q485 546 526 526T593 465L556 439Q538 472 506 489T432 507Q398 507 365 492T305 451T262 388T245 308Q245 279 255 253T284 206T331 174T393 162Q425 162 455 176T506 210L530 177Z"  />
<glyph unicode="&#xAA;" horiz-adv-x="363" d="M246 579Q228 579 213 567T187 536T169 494T163 448Q163 418 177 403T214 388Q231 388 246 398T272 424L299 547Q292 561 278 570T246 579ZM407 640L337 326H250L258 365Q238 339 218 329T174 318Q133 318 103 347T73 439Q73 477 84 514T115 581T163 629T224 648Q251 648 274 637T311 602L319 640H407Z"  />
<glyph unicode="&#xAB;" horiz-adv-x="456" d="M114 63L29 243L194 420H299L131 239L213 63H114ZM282 63L197 243L362 420H468L299 239L382 63H282Z"  />
<glyph unicode="&#xAC;" horiz-adv-x="449" d="M405 202H327L369 391H61L78 466H463L405 202Z"  />
<glyph unicode="&#xAD;" horiz-adv-x="270" d="M18 191L40 293H251L229 191H18Z"  />
<glyph unicode="&#xAE;" horiz-adv-x="494" d="M508 465Q508 421 492 383T446 315T378 270T295 253Q251 253 213 269T146 315T101 382T84 465Q84 509 100 548T146 615T213 660T296 677Q340 677 379 661T446 616T491 548T508 465ZM476 465Q476 503 462 536T423 593T365 631T295 645Q257 645 225 631T168 593T129 536T115 465Q115 428 129 395T167 338T224 299T295 284Q332 284 365 298T423 337T462 395T476 465ZM329 343L287 439H243L222 343H188L241 586H333Q365 586 385 568T405 522Q405 504 398 489T380 463T354 446T325 440L369 343H329ZM369 519Q369 536 358 546T327 557H269L249 469H314Q337 469 353 483T369 519Z"  />
<glyph unicode="&#xAF;" horiz-adv-x="311" d="M71 563L86 632H395L380 563H71Z"  />
<glyph unicode="&#xB0;" horiz-adv-x="308" d="M353 543Q353 515 343 491T314 449T272 421T220 410Q192 410 168 420T126 449T98 491T87 543Q87 571 97 595T126 638T168 666T220 677Q247 677 271 667T314 638T342 596T353 543ZM287 543Q287 571 267 591T220 611Q192 611 173 591T154 543Q154 515 172 496T219 477Q246 477 266 496T287 543Z"  />
<glyph unicode="&#xB1;" horiz-adv-x="444" d="M278 314L239 139H157L195 314H44L60 389H212L249 556H332L295 389H446L429 314H278ZM-22 13L-6 88H379L364 13H-22Z"  />
<glyph unicode="&#xB2;" horiz-adv-x="345" d="M76 421L92 492Q161 540 206 573T279 631T316 673T327 709Q327 731 311 742T270 754Q243 754 219 742T176 710L135 770Q162 796 199 811T276 827Q306 827 332 820T377 799T408 765T420 718Q420 690 407 665T368 613T304 558T216 494H373L357 421H76Z"  />
<glyph unicode="&#xB3;" horiz-adv-x="345" d="M384 537Q384 515 374 493T346 454T300 425T238 414Q184 414 143 433T82 486L143 539Q158 513 182 500T233 487Q265 487 280 506T295 547Q295 568 277 578T228 589Q220 589 211 589T197 588L212 660Q219 659 235 659T261 659Q292 659 309 673T327 713Q327 733 309 743T264 754Q214 754 176 716L138 771Q165 797 200 812T272 827Q338 827 378 801T419 726Q419 708 413 690T393 658T361 633T317 620Q348 612 366 591T384 537Z"  />
<glyph unicode="&#xB4;" horiz-adv-x="214" d="M149 556H67L206 700H315L149 556Z"  />
<glyph unicode="&#xB5;" horiz-adv-x="512" d="M79 -184H-42L108 483H228L157 164Q149 129 162 112T205 94Q234 94 260 112T304 153L377 483H498L421 136Q416 116 422 105T444 94Q452 94 462 96L448 -5Q437 -8 422 -10T390 -12Q339 -12 318 9T297 74Q274 36 241 12T172 -12Q136 -12 122 10L79 -184Z"  />
<glyph unicode="&#xB6;" horiz-adv-x="449" d="M262 -100L419 607H339L182 -100H122L216 323Q188 323 163 334T120 367T90 416T79 479Q79 514 93 548T134 608T195 651T273 667H492L322 -100H262Z"  />
<glyph unicode="&#xB7;" horiz-adv-x="252" d="M119 167Q89 167 69 188T48 238Q48 273 73 298T133 323Q162 323 182 302T203 251Q203 216 179 192T119 167Z"  />
<glyph unicode="&#xB8;" horiz-adv-x="202" d="M17 -195Q-18 -195 -45 -184T-89 -155L-56 -109Q-42 -125 -23 -134T17 -143Q38 -143 50 -133T63 -106Q63 -83 37 -83Q21 -83 10 -96L-28 -71L21 11H81L41 -52Q54 -42 68 -42Q92 -42 108 -58T124 -102Q124 -144 93 -169T17 -195Z"  />
<glyph unicode="&#xB9;" horiz-adv-x="265" d="M161 421L222 700L149 640L107 695L262 821H340L252 421H161Z"  />
<glyph unicode="&#xBA;" horiz-adv-x="357" d="M212 318Q146 318 110 355T74 451Q74 488 87 523T123 586T177 631T247 648Q313 648 349 611T385 514Q385 478 372 443T336 380T282 335T212 318ZM215 388Q236 388 251 402T276 436T291 478T296 517Q296 576 244 576Q223 576 208 563T183 529T168 487T163 447Q163 419 176 404T215 388Z"  />
<glyph unicode="&#xBB;" horiz-adv-x="456" d="M174 420L259 240L94 63H-11L158 245L75 420H174ZM343 420L428 240L263 63H157L326 245L243 420H343Z"  />
<glyph unicode="&#xBC;" horiz-adv-x="741" d="M127 267L188 546L115 486L73 541L228 667H306L218 267H127ZM644 88L625 0H534L553 88H381L396 154L594 400H713L660 159H702L687 88H644ZM602 309L481 159H569L602 309ZM158 0H95L594 667H658L158 0Z"  />
<glyph unicode="&#xBD;" horiz-adv-x="775" d="M127 267L188 546L115 486L73 541L228 667H306L218 267H127ZM413 0L429 71Q498 119 543 152T616 210T653 252T664 288Q664 310 648 321T607 333Q580 333 556 321T513 289L472 349Q499 375 536 390T613 406Q643 406 669 399T714 378T745 344T757 297Q757 269 744 244T705 192T641 137T553 73H710L694 0H413ZM158 0H95L594 667H658L158 0Z"  />
<glyph unicode="&#xBE;" horiz-adv-x="802" d="M706 88L687 0H596L615 88H443L458 154L656 400H775L722 159H764L749 88H706ZM664 309L543 159H631L664 309ZM219 0H156L655 667H719L219 0ZM350 383Q350 361 340 339T312 300T266 271T204 260Q150 260 109 279T48 332L109 385Q124 359 148 346T199 333Q231 333 246 352T261 393Q261 414 243 424T194 435Q186 435 177 435T163 434L178 506Q185 505 201 505T227 505Q258 505 275 519T293 559Q293 579 275 589T230 600Q180 600 142 562L104 617Q131 643 166 658T238 673Q304 673 344 647T385 572Q385 554 379 536T359 504T327 479T283 466Q314 458 332 437T350 383Z"  />
<glyph unicode="&#xBF;" horiz-adv-x="342" d="M251 280Q257 266 260 249T263 215Q263 179 251 153T219 107T179 72T138 41T107 10T94 -28Q94 -50 110 -64T158 -79Q181 -79 204 -71T246 -44L294 -134Q255 -167 213 -181T128 -195Q91 -195 59 -186T3 -158T-34 -115T-48 -60Q-48 -20 -34 9T3 61T51 101T99 136T135 172T150 216Q150 221 148 230T141 248L251 280ZM240 494Q270 494 290 473T311 423Q311 388 286 364T226 339Q197 339 177 360T156 410Q156 445 181 469T240 494Z"  />
<glyph unicode="&#xC0;" horiz-adv-x="554" d="M362 0L357 118H151L95 0H-56L289 667H451L502 0H362ZM344 526L204 236H355L344 526ZM356 723L254 867H361L436 723H356Z"  />
<glyph unicode="&#xC1;" horiz-adv-x="554" d="M362 0L357 118H151L95 0H-56L289 667H451L502 0H362ZM344 526L204 236H355L344 526ZM408 723H326L465 867H574L408 723Z"  />
<glyph unicode="&#xC2;" horiz-adv-x="554" d="M447 723L403 814L322 723H250L359 867H467L515 723H447ZM362 0L357 118H151L95 0H-56L289 667H451L502 0H362ZM344 526L204 236H355L344 526Z"  />
<glyph unicode="&#xC3;" horiz-adv-x="554" d="M362 0L357 118H151L95 0H-56L289 667H451L502 0H362ZM344 526L204 236H355L344 526ZM444 721Q419 721 406 732T384 756T367 781T343 792Q316 792 302 727H238Q251 788 277 824T350 861Q375 861 388 850T411 826T428 801T452 790Q479 790 493 855H557Q544 794 518 758T444 721Z"  />
<glyph unicode="&#xC4;" horiz-adv-x="554" d="M553 784Q553 770 547 757T531 734T507 718T479 712Q455 712 439 728T422 770Q422 799 444 820T495 841Q520 841 536 825T553 784ZM366 784Q366 755 344 734T293 712Q268 712 252 728T235 770Q235 799 257 820T308 841Q333 841 349 825T366 784ZM362 0L357 118H151L95 0H-56L289 667H451L502 0H362ZM344 526L204 236H355L344 526Z"  />
<glyph unicode="&#xC5;" horiz-adv-x="554" d="M362 0L357 118H151L95 0H-56L289 667H451L502 0H362ZM344 526L204 236H355L344 526ZM386 690Q348 690 324 714T299 778Q299 799 307 818T331 853T365 876T406 885Q445 885 469 861T493 797Q493 775 485 756T462 722T428 699T386 690ZM392 744Q411 744 425 758T440 791Q440 808 430 819T402 831Q382 831 368 817T354 783Q354 766 364 755T392 744Z"  />
<glyph unicode="&#xC6;" horiz-adv-x="787" d="M315 0L341 118H170L93 0H-56L406 667H844L818 549H571L537 398H778L752 280H511L475 118H723L697 0H315ZM429 516L245 236H367L429 516Z"  />
<glyph unicode="&#xC7;" horiz-adv-x="558" d="M228 -195Q193 -195 166 -184T122 -155L155 -109Q169 -125 188 -134T228 -143Q249 -143 261 -133T274 -106Q274 -83 248 -83Q232 -83 221 -96L183 -71L222 -5Q138 13 88 78T37 243Q37 324 60 402T127 541T233 640T373 678Q425 678 464 662T531 620T576 559T602 488L475 454Q464 502 436 530T365 559Q324 559 290 530T230 456T190 356T175 246Q175 181 207 144T295 107Q328 107 359 128T415 186L520 128Q475 56 414 22T287 -12H277L252 -52Q265 -42 279 -42Q303 -42 319 -58T335 -102Q335 -144 304 -169T228 -195Z"  />
<glyph unicode="&#xC8;" horiz-adv-x="481" d="M5 0L152 667H534L508 549H260L227 398H468L441 280H201L165 118H413L387 0H5ZM330 723L228 867H335L410 723H330Z"  />
<glyph unicode="&#xC9;" horiz-adv-x="481" d="M382 723H300L439 867H548L382 723ZM5 0L152 667H534L508 549H260L227 398H468L441 280H201L165 118H413L387 0H5Z"  />
<glyph unicode="&#xCA;" horiz-adv-x="481" d="M420 723L376 814L295 723H223L332 867H440L488 723H420ZM5 0L152 667H534L508 549H260L227 398H468L441 280H201L165 118H413L387 0H5Z"  />
<glyph unicode="&#xCB;" horiz-adv-x="481" d="M526 784Q526 770 520 757T504 734T480 718T452 712Q428 712 412 728T395 770Q395 799 417 820T468 841Q493 841 509 825T526 784ZM339 784Q339 755 317 734T266 712Q241 712 225 728T208 770Q208 799 230 820T281 841Q306 841 322 825T339 784ZM5 0L152 667H534L508 549H260L227 398H468L441 280H201L165 118H413L387 0H5Z"  />
<glyph unicode="&#xCC;" horiz-adv-x="252" d="M5 0L152 667H286L139 0H5ZM205 723L103 867H210L285 723H205Z"  />
<glyph unicode="&#xCD;" horiz-adv-x="252" d="M5 0L152 667H286L139 0H5ZM258 723H176L315 867H424L258 723Z"  />
<glyph unicode="&#xCE;" horiz-adv-x="252" d="M296 723L252 814L171 723H99L208 867H316L364 723H296ZM5 0L152 667H286L139 0H5Z"  />
<glyph unicode="&#xCF;" horiz-adv-x="252" d="M403 784Q403 770 397 757T381 734T357 718T329 712Q305 712 289 728T272 770Q272 799 294 820T345 841Q370 841 386 825T403 784ZM216 784Q216 755 194 734T143 712Q118 712 102 728T85 770Q85 799 107 820T158 841Q183 841 199 825T216 784ZM5 0L152 667H286L139 0H5Z"  />
<glyph unicode="&#xD0;" horiz-adv-x="620" d="M29 0L90 280H20L44 387H114L176 667H386Q430 667 471 650T545 601T596 522T616 415Q616 371 608 324T582 230T535 143T465 69T369 19T244 0H29ZM224 280L189 118H267Q319 118 358 146T424 216T464 310T477 410Q477 476 445 512T361 549H284L248 387H357L333 280H224Z"  />
<glyph unicode="&#xD1;" horiz-adv-x="606" d="M471 721Q446 721 433 732T411 756T394 781T370 792Q343 792 329 727H265Q278 788 304 824T377 861Q402 861 415 850T438 826T455 801T479 790Q506 790 520 855H584Q571 794 545 758T471 721ZM366 0L229 410L139 0H5L152 667H288L419 272L506 667H641L494 0H366Z"  />
<glyph unicode="&#xD2;" horiz-adv-x="622" d="M391 723L289 867H396L471 723H391ZM287 -12Q230 -12 184 6T105 59T55 140T37 243Q37 320 59 397T125 537T231 639T373 678Q430 678 476 659T555 606T605 525T623 422Q623 345 601 268T535 128T429 27T287 -12ZM295 107Q336 107 371 135T431 209T470 309T484 419Q484 483 451 521T364 559Q323 559 288 531T228 457T189 356T175 246Q175 182 207 145T295 107Z"  />
<glyph unicode="&#xD3;" horiz-adv-x="622" d="M443 723H361L500 867H609L443 723ZM287 -12Q230 -12 184 6T105 59T55 140T37 243Q37 320 59 397T125 537T231 639T373 678Q430 678 476 659T555 606T605 525T623 422Q623 345 601 268T535 128T429 27T287 -12ZM295 107Q336 107 371 135T431 209T470 309T484 419Q484 483 451 521T364 559Q323 559 288 531T228 457T189 356T175 246Q175 182 207 145T295 107Z"  />
<glyph unicode="&#xD4;" horiz-adv-x="622" d="M482 723L438 814L357 723H285L394 867H502L550 723H482ZM287 -12Q230 -12 184 6T105 59T55 140T37 243Q37 320 59 397T125 537T231 639T373 678Q430 678 476 659T555 606T605 525T623 422Q623 345 601 268T535 128T429 27T287 -12ZM295 107Q336 107 371 135T431 209T470 309T484 419Q484 483 451 521T364 559Q323 559 288 531T228 457T189 356T175 246Q175 182 207 145T295 107Z"  />
<glyph unicode="&#xD5;" horiz-adv-x="622" d="M287 -12Q230 -12 184 6T105 59T55 140T37 243Q37 320 59 397T125 537T231 639T373 678Q430 678 476 659T555 606T605 525T623 422Q623 345 601 268T535 128T429 27T287 -12ZM295 107Q336 107 371 135T431 209T470 309T484 419Q484 483 451 521T364 559Q323 559 288 531T228 457T189 356T175 246Q175 182 207 145T295 107ZM478 721Q453 721 440 732T418 756T401 781T377 792Q350 792 336 727H272Q285 788 311 824T384 861Q409 861 422 850T445 826T462 801T486 790Q513 790 527 855H591Q578 794 552 758T478 721Z"  />
<glyph unicode="&#xD6;" horiz-adv-x="622" d="M587 784Q587 770 581 757T565 734T541 718T513 712Q489 712 473 728T456 770Q456 799 478 820T529 841Q554 841 570 825T587 784ZM400 784Q400 755 378 734T327 712Q302 712 286 728T269 770Q269 799 291 820T342 841Q367 841 383 825T400 784ZM287 -12Q230 -12 184 6T105 59T55 140T37 243Q37 320 59 397T125 537T231 639T373 678Q430 678 476 659T555 606T605 525T623 422Q623 345 601 268T535 128T429 27T287 -12ZM295 107Q336 107 371 135T431 209T470 309T484 419Q484 483 451 521T364 559Q323 559 288 531T228 457T189 356T175 246Q175 182 207 145T295 107Z"  />
<glyph unicode="&#xD7;" horiz-adv-x="444" d="M234 281L84 158L38 215L190 339L97 457L157 506L248 388L398 510L445 452L295 329L386 211L327 162L234 281Z"  />
<glyph unicode="&#xD8;" horiz-adv-x="622" d="M287 -12Q190 -12 125 41L90 0H2L79 91Q37 154 37 243Q37 320 59 397T125 537T231 639T373 678Q421 678 460 665T530 628L563 667H651L577 579Q599 547 611 508T623 422Q623 345 601 268T535 128T429 27T287 -12ZM295 107Q336 107 371 135T431 209T470 309T484 419Q484 431 483 441T479 463L209 142Q241 107 295 107ZM175 246Q175 227 178 209L445 527Q413 559 364 559Q323 559 288 531T228 457T189 356T175 246Z"  />
<glyph unicode="&#xD9;" horiz-adv-x="609" d="M282 -12Q228 -12 185 2T113 42T67 106T51 188Q51 198 52 210T56 232L152 667H287L190 228Q189 223 188 215T187 197Q187 158 213 132T287 106Q340 106 369 137T411 228L508 667H643L546 230Q521 115 457 52T282 -12ZM383 723L281 867H388L463 723H383Z"  />
<glyph unicode="&#xDA;" horiz-adv-x="609" d="M435 723H353L492 867H601L435 723ZM282 -12Q228 -12 185 2T113 42T67 106T51 188Q51 198 52 210T56 232L152 667H287L190 228Q189 223 188 215T187 197Q187 158 213 132T287 106Q340 106 369 137T411 228L508 667H643L546 230Q521 115 457 52T282 -12Z"  />
<glyph unicode="&#xDB;" horiz-adv-x="609" d="M474 723L430 814L349 723H277L386 867H494L542 723H474ZM282 -12Q228 -12 185 2T113 42T67 106T51 188Q51 198 52 210T56 232L152 667H287L190 228Q189 223 188 215T187 197Q187 158 213 132T287 106Q340 106 369 137T411 228L508 667H643L546 230Q521 115 457 52T282 -12Z"  />
<glyph unicode="&#xDC;" horiz-adv-x="609" d="M580 784Q580 770 574 757T558 734T534 718T506 712Q482 712 466 728T449 770Q449 799 471 820T522 841Q547 841 563 825T580 784ZM393 784Q393 755 371 734T320 712Q295 712 279 728T262 770Q262 799 284 820T335 841Q360 841 376 825T393 784ZM282 -12Q228 -12 185 2T113 42T67 106T51 188Q51 198 52 210T56 232L152 667H287L190 228Q189 223 188 215T187 197Q187 158 213 132T287 106Q340 106 369 137T411 228L508 667H643L546 230Q521 115 457 52T282 -12Z"  />
<glyph unicode="&#xDD;" horiz-adv-x="538" d="M148 0L208 275L89 667H230L296 399L481 667H635L342 275L282 0H148ZM401 723H319L458 867H567L401 723Z"  />
<glyph unicode="&#xDE;" horiz-adv-x="533" d="M5 0L152 667H286L262 558H363Q401 558 432 545T487 507T522 451T535 381Q535 339 521 295T476 214T397 155T279 132H168L139 0H5ZM287 250Q313 250 333 260T367 286T388 323T396 367Q396 401 377 420T326 440H236L194 250H287Z"  />
<glyph unicode="&#xDF;" horiz-adv-x="580" d="M546 156Q546 124 533 94T496 41T438 3T361 -12Q301 -12 257 6T177 66L241 143Q261 117 288 100T356 83Q384 83 402 99T421 139Q421 154 409 165T377 186T336 206T294 232T263 268T250 319Q250 352 261 375T289 415T325 444T362 467T390 491T401 521Q401 544 380 558T327 573Q290 573 265 550T230 482L123 0H3L109 482Q118 523 136 558T183 620T250 662T336 677Q373 677 408 667T469 639T511 594T527 537Q527 505 516 483T487 444T449 415T412 391T383 367T371 339Q371 325 384 315T416 295T458 274T500 248T533 210T546 156Z"  />
<glyph unicode="&#xE0;" horiz-adv-x="504" d="M245 495Q286 495 319 477T369 420L383 483H503L396 0H276L289 59Q262 22 231 5T165 -12Q98 -12 59 33T20 165Q20 216 34 274T77 381T147 462T245 495ZM268 389Q239 389 216 368T178 317T154 251T145 185Q145 141 166 118T223 94Q249 94 272 111T310 151L350 332Q340 357 319 373T268 389ZM291 556L189 700H296L371 556H291Z"  />
<glyph unicode="&#xE1;" horiz-adv-x="504" d="M245 495Q286 495 319 477T369 420L383 483H503L396 0H276L289 59Q262 22 231 5T165 -12Q98 -12 59 33T20 165Q20 216 34 274T77 381T147 462T245 495ZM268 389Q239 389 216 368T178 317T154 251T145 185Q145 141 166 118T223 94Q249 94 272 111T310 151L350 332Q340 357 319 373T268 389ZM343 556H261L400 700H509L343 556Z"  />
<glyph unicode="&#xE2;" horiz-adv-x="504" d="M245 495Q286 495 319 477T369 420L383 483H503L396 0H276L289 59Q262 22 231 5T165 -12Q98 -12 59 33T20 165Q20 216 34 274T77 381T147 462T245 495ZM268 389Q239 389 216 368T178 317T154 251T145 185Q145 141 166 118T223 94Q249 94 272 111T310 151L350 332Q340 357 319 373T268 389ZM382 556L338 647L257 556H185L294 700H402L450 556H382Z"  />
<glyph unicode="&#xE3;" horiz-adv-x="504" d="M245 495Q286 495 319 477T369 420L383 483H503L396 0H276L289 59Q262 22 231 5T165 -12Q98 -12 59 33T20 165Q20 216 34 274T77 381T147 462T245 495ZM268 389Q239 389 216 368T178 317T154 251T145 185Q145 141 166 118T223 94Q249 94 272 111T310 151L350 332Q340 357 319 373T268 389ZM379 554Q354 554 341 565T319 589T302 614T278 625Q251 625 237 560H173Q186 621 212 657T285 694Q310 694 323 683T346 659T363 634T387 623Q414 623 428 688H492Q479 627 453 591T379 554Z"  />
<glyph unicode="&#xE4;" horiz-adv-x="504" d="M245 495Q286 495 319 477T369 420L383 483H503L396 0H276L289 59Q262 22 231 5T165 -12Q98 -12 59 33T20 165Q20 216 34 274T77 381T147 462T245 495ZM268 389Q239 389 216 368T178 317T154 251T145 185Q145 141 166 118T223 94Q249 94 272 111T310 151L350 332Q340 357 319 373T268 389ZM488 617Q488 603 482 590T466 567T442 551T414 545Q390 545 374 561T357 603Q357 632 379 653T430 674Q455 674 471 658T488 617ZM301 617Q301 588 279 567T228 545Q203 545 187 561T170 603Q170 632 192 653T243 674Q268 674 284 658T301 617Z"  />
<glyph unicode="&#xE5;" horiz-adv-x="504" d="M245 495Q286 495 319 477T369 420L383 483H503L396 0H276L289 59Q262 22 231 5T165 -12Q98 -12 59 33T20 165Q20 216 34 274T77 381T147 462T245 495ZM268 389Q239 389 216 368T178 317T154 251T145 185Q145 141 166 118T223 94Q249 94 272 111T310 151L350 332Q340 357 319 373T268 389ZM323 531Q285 531 261 555T236 619Q236 640 244 659T268 694T302 717T343 726Q382 726 406 702T430 638Q430 616 422 597T399 563T365 540T323 531ZM329 585Q348 585 362 599T377 632Q377 649 367 660T339 672Q319 672 305 658T291 624Q291 607 301 596T329 585Z"  />
<glyph unicode="&#xE6;" horiz-adv-x="781" d="M268 389Q239 389 216 368T178 317T154 251T145 185Q145 141 166 118T223 94Q249 94 272 111T310 151L350 332Q340 357 319 373T268 389ZM396 0H276L289 59Q262 22 231 5T165 -12Q98 -12 59 33T20 165Q20 216 34 274T77 381T147 462T245 495Q286 495 319 477T369 420L383 483H503L491 427Q512 453 544 474T617 495Q686 494 723 450T760 314Q760 285 755 254T745 203H444Q443 196 443 189T442 176Q442 161 448 145T468 117T501 96T551 87Q578 87 604 97T651 126L690 42Q659 16 623 2T554 -12Q494 -12 461 13T414 81L396 0ZM648 285Q651 300 651 315Q651 349 632 374T571 399Q548 399 529 389T496 362T472 325T459 285H648Z"  />
<glyph unicode="&#xE7;" horiz-adv-x="421" d="M170 -195Q135 -195 108 -184T64 -155L97 -109Q111 -125 130 -134T170 -143Q191 -143 203 -133T216 -106Q216 -83 190 -83Q174 -83 163 -96L125 -71L164 -5Q98 10 61 60T23 188Q23 245 41 300T93 398T174 468T278 495Q335 495 375 475T437 423L363 344Q350 366 329 377T282 389Q250 389 225 372T182 326T155 264T145 197Q145 145 172 120T241 94Q266 94 286 104T321 132L366 45Q341 21 306 5T222 -12H219L194 -52Q207 -42 221 -42Q245 -42 261 -58T277 -102Q277 -144 246 -169T170 -195Z"  />
<glyph unicode="&#xE8;" horiz-adv-x="479" d="M230 -12Q133 -12 78 40T22 188Q22 239 39 293T89 393T168 466T274 495Q359 495 408 445T457 305Q457 277 452 249T442 203H140Q139 196 139 189T138 176Q138 161 144 145T163 116T196 94T245 85Q272 85 300 95T348 123L387 45Q355 17 314 3T230 -12ZM346 285Q348 292 348 300T349 315Q349 348 329 373T266 399Q243 399 224 389T191 362T167 325T155 285H346ZM292 556L190 700H297L372 556H292Z"  />
<glyph unicode="&#xE9;" horiz-adv-x="479" d="M345 556H263L402 700H511L345 556ZM230 -12Q133 -12 78 40T22 188Q22 239 39 293T89 393T168 466T274 495Q359 495 408 445T457 305Q457 277 452 249T442 203H140Q139 196 139 189T138 176Q138 161 144 145T163 116T196 94T245 85Q272 85 300 95T348 123L387 45Q355 17 314 3T230 -12ZM346 285Q348 292 348 300T349 315Q349 348 329 373T266 399Q243 399 224 389T191 362T167 325T155 285H346Z"  />
<glyph unicode="&#xEA;" horiz-adv-x="479" d="M382 556L338 647L257 556H185L294 700H402L450 556H382ZM230 -12Q133 -12 78 40T22 188Q22 239 39 293T89 393T168 466T274 495Q359 495 408 445T457 305Q457 277 452 249T442 203H140Q139 196 139 189T138 176Q138 161 144 145T163 116T196 94T245 85Q272 85 300 95T348 123L387 45Q355 17 314 3T230 -12ZM346 285Q348 292 348 300T349 315Q349 348 329 373T266 399Q243 399 224 389T191 362T167 325T155 285H346Z"  />
<glyph unicode="&#xEB;" horiz-adv-x="479" d="M489 617Q489 603 483 590T467 567T443 551T415 545Q391 545 375 561T358 603Q358 632 380 653T431 674Q456 674 472 658T489 617ZM302 617Q302 588 280 567T229 545Q204 545 188 561T171 603Q171 632 193 653T244 674Q269 674 285 658T302 617ZM230 -12Q133 -12 78 40T22 188Q22 239 39 293T89 393T168 466T274 495Q359 495 408 445T457 305Q457 277 452 249T442 203H140Q139 196 139 189T138 176Q138 161 144 145T163 116T196 94T245 85Q272 85 300 95T348 123L387 45Q355 17 314 3T230 -12ZM346 285Q348 292 348 300T349 315Q349 348 329 373T266 399Q243 399 224 389T191 362T167 325T155 285H346Z"  />
<glyph unicode="&#xEC;" horiz-adv-x="228" d="M0 0L107 483H227L120 0H0ZM159 556L57 700H164L239 556H159Z"  />
<glyph unicode="&#xED;" horiz-adv-x="228" d="M209 556H127L266 700H375L209 556ZM0 0L107 483H227L120 0H0Z"  />
<glyph unicode="&#xEE;" horiz-adv-x="228" d="M250 556L206 647L125 556H53L162 700H270L318 556H250ZM0 0L107 483H227L120 0H0Z"  />
<glyph unicode="&#xEF;" horiz-adv-x="228" d="M356 617Q356 603 350 590T334 567T310 551T282 545Q258 545 242 561T225 603Q225 632 247 653T298 674Q323 674 339 658T356 617ZM169 617Q169 588 147 567T96 545Q71 545 55 561T38 603Q38 632 60 653T111 674Q136 674 152 658T169 617ZM0 0L107 483H227L120 0H0Z"  />
<glyph unicode="&#xF0;" horiz-adv-x="495" d="M159 549L280 585Q269 602 258 616T235 645L335 709Q373 665 402 621L488 646L502 591L432 570Q458 520 470 471T483 367Q483 302 467 235T419 112T338 23T223 -12Q126 -12 73 40T20 179Q20 230 36 280T81 371T150 437T240 463Q288 463 320 439T367 369Q362 407 348 449T311 533L173 492L159 549ZM225 94Q252 94 274 111T311 154T335 211T344 270Q344 286 339 301T324 329T298 349T259 357Q233 357 212 340T175 297T152 241T143 183Q143 94 225 94Z"  />
<glyph unicode="&#xF1;" horiz-adv-x="500" d="M271 0L341 316Q342 321 343 328T345 342Q345 367 330 378T293 389Q261 389 236 370T192 328L120 0H0L107 483H227L213 421Q239 450 274 472T355 495Q411 495 443 468T475 393Q475 387 474 376T471 358L391 0H271ZM380 554Q355 554 342 565T320 589T303 614T279 625Q252 625 238 560H174Q187 621 213 657T286 694Q311 694 324 683T347 659T364 634T388 623Q415 623 429 688H493Q480 627 454 591T380 554Z"  />
<glyph unicode="&#xF2;" horiz-adv-x="495" d="M220 -12Q172 -12 135 2T73 42T35 104T22 186Q22 240 39 295T90 395T169 467T274 495Q322 495 359 481T421 441T459 379T472 297Q472 243 455 188T404 88T325 16T220 -12ZM225 94Q254 94 277 114T316 165T340 231T349 295Q349 343 328 366T269 389Q240 389 217 369T178 318T154 252T145 188Q145 140 166 117T225 94ZM291 556L189 700H296L371 556H291Z"  />
<glyph unicode="&#xF3;" horiz-adv-x="495" d="M343 556H261L400 700H509L343 556ZM220 -12Q172 -12 135 2T73 42T35 104T22 186Q22 240 39 295T90 395T169 467T274 495Q322 495 359 481T421 441T459 379T472 297Q472 243 455 188T404 88T325 16T220 -12ZM225 94Q254 94 277 114T316 165T340 231T349 295Q349 343 328 366T269 389Q240 389 217 369T178 318T154 252T145 188Q145 140 166 117T225 94Z"  />
<glyph unicode="&#xF4;" horiz-adv-x="495" d="M382 556L338 647L257 556H185L294 700H402L450 556H382ZM220 -12Q172 -12 135 2T73 42T35 104T22 186Q22 240 39 295T90 395T169 467T274 495Q322 495 359 481T421 441T459 379T472 297Q472 243 455 188T404 88T325 16T220 -12ZM225 94Q254 94 277 114T316 165T340 231T349 295Q349 343 328 366T269 389Q240 389 217 369T178 318T154 252T145 188Q145 140 166 117T225 94Z"  />
<glyph unicode="&#xF5;" horiz-adv-x="495" d="M220 -12Q172 -12 135 2T73 42T35 104T22 186Q22 240 39 295T90 395T169 467T274 495Q322 495 359 481T421 441T459 379T472 297Q472 243 455 188T404 88T325 16T220 -12ZM225 94Q254 94 277 114T316 165T340 231T349 295Q349 343 328 366T269 389Q240 389 217 369T178 318T154 252T145 188Q145 140 166 117T225 94ZM379 554Q354 554 341 565T319 589T302 614T278 625Q251 625 237 560H173Q186 621 212 657T285 694Q310 694 323 683T346 659T363 634T387 623Q414 623 428 688H492Q479 627 453 591T379 554Z"  />
<glyph unicode="&#xF6;" horiz-adv-x="495" d="M488 617Q488 603 482 590T466 567T442 551T414 545Q390 545 374 561T357 603Q357 632 379 653T430 674Q455 674 471 658T488 617ZM301 617Q301 588 279 567T228 545Q203 545 187 561T170 603Q170 632 192 653T243 674Q268 674 284 658T301 617ZM220 -12Q172 -12 135 2T73 42T35 104T22 186Q22 240 39 295T90 395T169 467T274 495Q322 495 359 481T421 441T459 379T472 297Q472 243 455 188T404 88T325 16T220 -12ZM225 94Q254 94 277 114T316 165T340 231T349 295Q349 343 328 366T269 389Q240 389 217 369T178 318T154 252T145 188Q145 140 166 117T225 94Z"  />
<glyph unicode="&#xF7;" horiz-adv-x="443" d="M41 300L58 375H442L426 300H41ZM200 115Q177 115 162 130T146 169Q146 195 165 214T211 233Q233 233 248 217T264 179Q264 153 245 134T200 115ZM272 439Q249 439 234 455T218 493Q218 519 237 538T283 557Q305 557 320 541T336 503Q336 477 317 458T272 439Z"  />
<glyph unicode="&#xF8;" horiz-adv-x="495" d="M-19 0L50 73Q22 119 22 186Q22 240 39 295T90 395T169 467T274 495Q356 495 407 453L436 483H511L443 411Q472 364 472 297Q472 243 455 188T404 88T325 16T220 -12Q136 -12 85 31L56 0H-19ZM225 94Q254 94 277 114T316 165T340 231T349 295Q349 305 348 310L166 117Q186 94 225 94ZM145 174L326 367Q306 389 269 389Q240 389 217 369T178 318T154 252T145 188V174Z"  />
<glyph unicode="&#xF9;" horiz-adv-x="499" d="M227 483L157 166Q155 159 154 153T153 141Q153 117 169 106T209 94Q238 94 263 113T305 154L378 483H498L391 0H271L285 62Q260 33 225 11T144 -12Q87 -12 55 15T23 90Q23 96 24 107T28 125L107 483H227ZM293 556L191 700H298L373 556H293Z"  />
<glyph unicode="&#xFA;" horiz-adv-x="499" d="M345 556H263L402 700H511L345 556ZM227 483L157 166Q155 159 154 153T153 141Q153 117 169 106T209 94Q238 94 263 113T305 154L378 483H498L391 0H271L285 62Q260 33 225 11T144 -12Q87 -12 55 15T23 90Q23 96 24 107T28 125L107 483H227Z"  />
<glyph unicode="&#xFB;" horiz-adv-x="499" d="M383 556L339 647L258 556H186L295 700H403L451 556H383ZM227 483L157 166Q155 159 154 153T153 141Q153 117 169 106T209 94Q238 94 263 113T305 154L378 483H498L391 0H271L285 62Q260 33 225 11T144 -12Q87 -12 55 15T23 90Q23 96 24 107T28 125L107 483H227Z"  />
<glyph unicode="&#xFC;" horiz-adv-x="499" d="M490 617Q490 603 484 590T468 567T444 551T416 545Q392 545 376 561T359 603Q359 632 381 653T432 674Q457 674 473 658T490 617ZM303 617Q303 588 281 567T230 545Q205 545 189 561T172 603Q172 632 194 653T245 674Q270 674 286 658T303 617ZM227 483L157 166Q155 159 154 153T153 141Q153 117 169 106T209 94Q238 94 263 113T305 154L378 483H498L391 0H271L285 62Q260 33 225 11T144 -12Q87 -12 55 15T23 90Q23 96 24 107T28 125L107 483H227Z"  />
<glyph unicode="&#xFD;" horiz-adv-x="447" d="M-12 -82Q-6 -86 4 -87T24 -89Q55 -89 75 -55L103 -5L51 483H175L197 145L371 483H502L187 -82Q169 -115 151 -136T113 -171T72 -190T24 -196Q3 -196 -17 -193T-51 -184L-12 -82ZM315 556H233L372 700H481L315 556Z"  />
<glyph unicode="&#xFE;" horiz-adv-x="503" d="M259 -12Q217 -12 184 6T134 63L79 -184H-40L147 667H267L214 424Q241 461 272 478T338 495Q405 495 444 450T483 318Q483 267 469 210T426 103T356 21T259 -12ZM235 94Q264 94 287 114T325 166T349 232T358 297Q358 341 337 365T281 389Q255 389 232 372T193 331L153 151Q163 126 184 110T235 94Z"  />
<glyph unicode="&#xFF;" horiz-adv-x="447" d="M-12 -82Q-6 -86 4 -87T24 -89Q55 -89 75 -55L103 -5L51 483H175L197 145L371 483H502L187 -82Q169 -115 151 -136T113 -171T72 -190T24 -196Q3 -196 -17 -193T-51 -184L-12 -82ZM460 617Q460 603 454 590T438 567T414 551T386 545Q362 545 346 561T329 603Q329 632 351 653T402 674Q427 674 443 658T460 617ZM273 617Q273 588 251 567T200 545Q175 545 159 561T142 603Q142 632 164 653T215 674Q240 674 256 658T273 617Z"  />
<glyph unicode="&#x110;" horiz-adv-x="620" d="M29 0L90 280H20L44 387H114L176 667H386Q430 667 471 650T545 601T596 522T616 415Q616 371 608 324T582 230T535 143T465 69T369 19T244 0H29ZM224 280L189 118H267Q319 118 358 146T424 216T464 310T477 410Q477 476 445 512T361 549H284L248 387H357L333 280H224Z"  />
<glyph unicode="&#x131;" horiz-adv-x="228" d="M0 0L107 483H227L120 0H0Z"  />
<glyph unicode="&#x152;" horiz-adv-x="858" d="M386 0L399 63Q369 24 329 6T243 -12Q199 -12 161 6T95 57T52 138T36 243Q36 325 60 403T127 542T231 640T365 677Q413 677 454 657T516 590L533 667H914L889 549H641L608 398H849L822 280H582L546 118H794L767 0H386ZM485 448Q476 503 446 530T370 558Q325 558 289 530T228 456T189 356T175 246Q175 183 205 145T290 107Q330 107 367 132T431 205L485 448Z"  />
<glyph unicode="&#x153;" horiz-adv-x="791" d="M458 203Q457 199 457 190T456 176Q456 159 462 143T481 114T514 93T561 85Q586 85 613 94T662 124L701 45Q670 18 630 3T545 -12Q480 -12 440 17T385 86Q370 66 353 49T316 18T272 -4T218 -12Q125 -12 74 40T22 186Q22 241 39 296T89 395T167 467T272 495Q302 495 326 487T370 466T402 435T424 398Q438 417 455 434T492 465T537 487T590 495Q629 495 662 484T719 448T757 389T771 305Q771 277 766 250T756 203H458ZM659 285Q661 290 662 299T663 315Q663 349 644 373T582 398Q558 398 540 387T507 360T484 323T472 285H659ZM345 295Q345 341 324 365T266 389Q239 389 217 370T178 320T154 255T145 188Q145 145 164 120T224 94Q252 94 274 114T312 165T336 230T345 295Z"  />
<glyph unicode="&#x160;" horiz-adv-x="498" d="M306 723L258 867H326L370 776L451 867H523L414 723H306ZM226 -12Q149 -12 86 15T-12 88L69 187Q95 150 139 128T232 106Q274 106 297 130T321 190Q321 212 304 229T260 262T202 295T145 336T101 389T83 461Q83 504 100 543T147 613T221 660T316 678Q378 678 434 656T526 591L448 495Q422 527 383 543T305 560Q269 560 247 538T225 486Q225 465 242 449T286 416T343 382T400 341T444 287T462 214Q462 168 446 127T399 55T324 6T226 -12Z"  />
<glyph unicode="&#x161;" horiz-adv-x="412" d="M226 556L178 700H246L290 609L371 700H443L334 556H226ZM176 -12Q116 -12 65 9T-16 67L50 146Q59 134 72 123T103 102T141 87T182 81Q212 81 230 97T248 135Q248 152 234 164T198 187T151 209T104 237T68 277T53 333Q53 364 64 393T99 445T156 481T235 495Q286 495 333 476T409 423L348 347Q334 367 302 384T233 402Q204 402 187 388T170 353Q170 338 184 327T221 306T269 283T317 254T353 213T368 156Q368 122 355 92T317 38T257 2T176 -12Z"  />
<glyph unicode="&#x178;" horiz-adv-x="538" d="M547 784Q547 770 541 757T525 734T501 718T473 712Q449 712 433 728T416 770Q416 799 438 820T489 841Q514 841 530 825T547 784ZM360 784Q360 755 338 734T287 712Q262 712 246 728T229 770Q229 799 251 820T302 841Q327 841 343 825T360 784ZM148 0L208 275L89 667H230L296 399L481 667H635L342 275L282 0H148Z"  />
<glyph unicode="&#x17D;" horiz-adv-x="484" d="M292 723L244 867H312L356 776L437 867H509L400 723H292ZM-18 0L6 110L337 549H103L129 667H534L511 559L177 118H420L394 0H-18Z"  />
<glyph unicode="&#x17E;" horiz-adv-x="407" d="M217 556L169 700H237L281 609L362 700H434L325 556H217ZM-20 0L0 90L241 378H64L87 483H421L402 396L159 105H341L318 0H-20Z"  />
<glyph unicode="&#x192;" horiz-adv-x="426" d="M-44 -161L45 241H-3V346H68L109 532Q124 598 164 637T270 677Q300 677 331 669T385 640L341 542Q327 559 299 559Q276 559 261 543T240 500L206 346H302V241H182L93 -161H-44Z"  />
<glyph unicode="&#x2C6;" horiz-adv-x="265" d="M266 556L222 647L141 556H69L178 700H286L334 556H266Z"  />
<glyph unicode="&#x2C7;" horiz-adv-x="265" d="M149 556L101 700H169L213 609L294 700H366L257 556H149Z"  />
<glyph unicode="&#x2DA;" horiz-adv-x="193" d="M171 534Q133 534 109 558T84 622Q84 643 92 662T116 697T150 720T191 729Q230 729 254 705T278 641Q278 619 270 600T247 566T213 543T171 534ZM177 588Q196 588 210 602T225 635Q225 652 215 663T187 675Q167 675 153 661T139 627Q139 610 149 599T177 588Z"  />
<glyph unicode="&#x2DC;" horiz-adv-x="291" d="M276 554Q251 554 238 565T216 589T199 614T175 625Q148 625 134 560H70Q83 621 109 657T182 694Q207 694 220 683T243 659T260 634T284 623Q311 623 325 688H389Q376 627 350 591T276 554Z"  />
<glyph unicode="&#x2013;" horiz-adv-x="527" d="M18 191L40 293H507L484 191H18Z"  />
<glyph unicode="&#x2014;" horiz-adv-x="737" d="M18 191L40 293H717L694 191H18Z"  />
<glyph unicode="&#x2018;" horiz-adv-x="253" d="M95 483Q95 511 106 539T136 593T182 641T238 677L282 632Q268 626 254 617T226 597T203 574T186 548Q188 549 190 549T195 549Q219 549 237 533T255 487Q255 470 248 455T229 428T202 411T170 404Q141 404 118 424T95 483Z"  />
<glyph unicode="&#x2019;" horiz-adv-x="253" d="M286 599Q286 571 275 543T245 488T199 441T143 404L100 449Q113 455 128 464T156 484T179 507T196 533Q194 532 191 532T186 532Q162 532 145 548T127 595Q127 612 134 627T153 653T180 670T212 677Q241 677 263 657T286 599Z"  />
<glyph unicode="&#x201A;" horiz-adv-x="253" d="M168 65Q168 37 157 9T127 -45T81 -93T25 -130L-18 -84Q-5 -78 10 -69T38 -49T61 -26T78 0Q76 -1 73 -1T68 -1Q44 -1 27 15T9 61Q9 78 16 93T35 119T62 137T94 144Q123 144 145 124T168 65Z"  />
<glyph unicode="&#x201C;" horiz-adv-x="450" d="M294 483Q294 511 305 539T335 593T381 641T437 677L480 632Q466 626 452 617T424 597T401 574T384 548Q386 549 389 549T394 549Q418 549 435 533T453 487Q453 470 446 455T427 428T400 411T369 404Q340 404 317 424T294 483ZM98 483Q98 511 109 539T139 593T184 641T240 677L283 632Q256 620 228 597T187 548Q189 549 192 549T197 549Q221 549 239 533T257 487Q257 470 250 455T231 428T204 411T172 404Q143 404 121 424T98 483Z"  />
<glyph unicode="&#x201D;" horiz-adv-x="450" d="M286 599Q286 571 275 543T245 488T199 441T143 404L100 449Q113 455 128 464T156 484T179 507T196 533Q194 532 191 532T186 532Q162 532 145 548T127 595Q127 612 134 627T153 653T180 670T212 677Q241 677 263 657T286 599ZM483 599Q483 571 472 543T442 488T397 441T340 404L297 449Q310 455 325 464T353 484T376 507T393 533Q391 532 388 532T383 532Q359 532 342 548T324 595Q324 612 331 627T350 653T377 670T408 677Q437 677 460 657T483 599Z"  />
<glyph unicode="&#x201E;" horiz-adv-x="450" d="M168 65Q168 37 157 9T127 -45T81 -93T25 -130L-18 -84Q-5 -78 10 -69T38 -49T61 -26T78 0Q76 -1 73 -1T68 -1Q44 -1 27 15T9 61Q9 78 16 93T35 119T62 137T94 144Q123 144 145 124T168 65ZM365 65Q365 37 354 9T324 -45T278 -93T222 -130L179 -84Q192 -78 207 -69T235 -49T258 -26T275 0Q273 -1 270 -1T265 -1Q241 -1 223 15T205 61Q205 78 212 93T231 119T258 137T290 144Q319 144 342 124T365 65Z"  />
<glyph unicode="&#x2020;" horiz-adv-x="275" d="M228 527L188 327H122L172 527L82 523L95 583L183 580L200 677H266L240 580L330 583L316 523L228 527Z"  />
<glyph unicode="&#x2021;" horiz-adv-x="275" d="M316 523L228 527L185 331L275 335L261 275L173 278L155 180H89L116 278L27 275L40 335L127 331L171 527L82 523L95 583L183 580L200 677H266L240 580L330 583L316 523Z"  />
<glyph unicode="&#x2022;" horiz-adv-x="358" d="M297 254Q297 228 287 205T258 164T216 136T166 126Q121 126 91 156T61 231Q61 257 71 280T100 321T142 349T192 359Q237 359 267 329T297 254Z"  />
<glyph unicode="&#x2026;" horiz-adv-x="757" d="M79 -11Q50 -11 30 9T9 59Q9 77 16 92T34 119T61 137T94 144Q123 144 143 123T164 72Q164 37 139 13T79 -11ZM332 -11Q302 -11 282 9T261 59Q261 77 268 92T286 119T313 137T346 144Q375 144 395 123T416 72Q416 37 391 13T332 -11ZM584 -11Q554 -11 534 9T513 59Q513 77 520 92T538 119T565 137T598 144Q627 144 647 123T668 72Q668 37 643 13T584 -11Z"  />
<glyph unicode="&#x2030;" horiz-adv-x="994" d="M75 0L575 667H638L138 0H75ZM463 -12Q433 -12 408 -2T365 25T336 67T326 120Q326 163 340 200T377 263T432 305T496 320Q526 320 551 311T594 284T622 242T633 188Q633 145 619 109T582 45T527 3T463 -12ZM467 62Q482 62 497 71T523 96T542 133T549 181Q549 211 534 228T492 245Q476 245 462 236T436 212T417 174T410 127Q410 97 425 80T467 62ZM215 345Q185 345 160 354T117 381T88 423T78 477Q78 520 92 557T129 620T184 662T248 677Q278 677 303 668T346 641T375 599T385 546Q385 502 371 466T334 402T279 360T215 345ZM219 419Q234 419 249 428T275 453T294 490T301 538Q301 568 286 585T244 602Q229 602 214 593T188 569T169 531T162 484Q162 454 177 437T219 419ZM785 -12Q755 -12 730 -2T687 25T658 67T648 120Q648 163 662 200T699 263T754 305T818 320Q878 320 916 284T954 188Q954 145 940 109T903 45T849 3T785 -12ZM788 62Q804 62 819 71T845 96T864 133T871 181Q871 211 856 228T814 245Q798 245 784 236T758 212T739 174T732 127Q732 97 747 80T788 62Z"  />
<glyph unicode="&#x2039;" horiz-adv-x="287" d="M114 63L29 243L194 420H299L131 239L213 63H114Z"  />
<glyph unicode="&#x203A;" horiz-adv-x="287" d="M174 420L259 240L94 63H-11L158 245L75 420H174Z"  />
<glyph unicode="&#x2044;" horiz-adv-x="146" d="M-126 0H-189L310 667H374L-126 0Z"  />
<glyph unicode="&#x20AC;" horiz-adv-x="577" d="M309 -12Q256 -12 211 4T133 52T81 127T59 227H14L30 301H62Q64 318 66 334T73 367H45L62 442H96Q116 492 145 535T212 610T296 660T395 678Q447 678 486 662T553 620T598 559T624 488L497 454Q486 502 458 530T387 559Q342 559 306 526T243 442H421L403 367H215Q210 350 206 334T200 301H389L372 227H198Q203 170 234 139T317 107Q350 107 381 128T437 186L542 128Q497 56 436 22T309 -12Z"  />
<glyph unicode="&#x2122;" horiz-adv-x="414" d="M396 447L436 629L331 447H323L298 629L258 447H230L278 667H321L341 509L429 667H472L424 447H396ZM185 641L142 447H114L157 641H105L110 667H242L237 641H185Z"  />
<glyph unicode="&#xF656;" horiz-adv-x="265" d="M68 0L129 279L56 219L14 274L169 400H247L159 0H68Z"  />
<glyph unicode="&#xF657;" horiz-adv-x="345" d="M-17 0L-1 71Q68 119 113 152T186 210T223 252T234 288Q234 310 218 321T177 333Q150 333 126 321T83 289L42 349Q69 375 106 390T183 406Q213 406 239 399T284 378T315 344T327 297Q327 269 314 244T275 192T211 137T123 73H280L264 0H-17Z"  />
<glyph unicode="&#xF658;" horiz-adv-x="345" d="M291 116Q291 94 281 72T253 33T207 4T145 -7Q91 -7 50 12T-11 65L50 118Q65 92 89 79T140 66Q172 66 187 85T202 126Q202 147 184 157T135 168Q127 168 118 168T104 167L119 239Q126 238 142 238T168 238Q199 238 216 252T234 292Q234 312 216 322T171 333Q121 333 83 295L45 350Q72 376 107 391T179 406Q245 406 285 380T326 305Q326 287 320 269T300 237T268 212T224 199Q255 191 273 170T291 116Z"  />
<glyph unicode="&#xF659;" horiz-adv-x="345" d="M249 88L230 0H139L158 88H-14L1 154L199 400H318L265 159H307L292 88H249ZM207 309L86 159H174L207 309Z"  />


</font>
</defs>
</svg>
